<svg width="43" height="19" viewBox="0 0 43 19" fill="none" xmlns="http://www.w3.org/2000/svg">
<path d="M0.980469 18V0.9375H6.55859C8.41016 0.9375 9.80078 1.32031 10.7305 2.08594C11.668 2.85156 12.1367 3.98438 12.1367 5.48438C12.1367 6.28125 11.9102 6.98828 11.457 7.60547C11.0039 8.21484 10.3867 8.6875 9.60547 9.02344C10.5273 9.28125 11.2539 9.77344 11.7852 10.5C12.3242 11.2188 12.5938 12.0781 12.5938 13.0781C12.5938 14.6094 12.0977 15.8125 11.1055 16.6875C10.1133 17.5625 8.71094 18 6.89844 18H0.980469ZM3.23047 10.0195V16.1602H6.94531C7.99219 16.1602 8.81641 15.8906 9.41797 15.3516C10.0273 14.8047 10.332 14.0547 10.332 13.1016C10.332 11.0469 9.21484 10.0195 6.98047 10.0195H3.23047ZM3.23047 8.21484H6.62891C7.61328 8.21484 8.39844 7.96875 8.98438 7.47656C9.57812 6.98438 9.875 6.31641 9.875 5.47266C9.875 4.53516 9.60156 3.85547 9.05469 3.43359C8.50781 3.00391 7.67578 2.78906 6.55859 2.78906H3.23047V8.21484ZM15.9336 18V0.9375H21.5117C23.3633 0.9375 24.7539 1.32031 25.6836 2.08594C26.6211 2.85156 27.0898 3.98438 27.0898 5.48438C27.0898 6.28125 26.8633 6.98828 26.4102 7.60547C25.957 8.21484 25.3398 8.6875 24.5586 9.02344C25.4805 9.28125 26.207 9.77344 26.7383 10.5C27.2773 11.2188 27.5469 12.0781 27.5469 13.0781C27.5469 14.6094 27.0508 15.8125 26.0586 16.6875C25.0664 17.5625 23.6641 18 21.8516 18H15.9336ZM18.1836 10.0195V16.1602H21.8984C22.9453 16.1602 23.7695 15.8906 24.3711 15.3516C24.9805 14.8047 25.2852 14.0547 25.2852 13.1016C25.2852 11.0469 24.168 10.0195 21.9336 10.0195H18.1836ZM18.1836 8.21484H21.582C22.5664 8.21484 23.3516 7.96875 23.9375 7.47656C24.5312 6.98438 24.8281 6.31641 24.8281 5.47266C24.8281 4.53516 24.5547 3.85547 24.0078 3.43359C23.4609 3.00391 22.6289 2.78906 21.5117 2.78906H18.1836V8.21484ZM35.9141 10.3945C33.9844 9.83984 32.5781 9.16016 31.6953 8.35547C30.8203 7.54297 30.3828 6.54297 30.3828 5.35547C30.3828 4.01172 30.918 2.90234 31.9883 2.02734C33.0664 1.14453 34.4648 0.703125 36.1836 0.703125C37.3555 0.703125 38.3984 0.929687 39.3125 1.38281C40.2344 1.83594 40.9453 2.46094 41.4453 3.25781C41.9531 4.05469 42.207 4.92578 42.207 5.87109H39.9453C39.9453 4.83984 39.6172 4.03125 38.9609 3.44531C38.3047 2.85156 37.3789 2.55469 36.1836 2.55469C35.0742 2.55469 34.207 2.80078 33.582 3.29297C32.9648 3.77734 32.6562 4.45312 32.6562 5.32031C32.6562 6.01562 32.9492 6.60547 33.5352 7.08984C34.1289 7.56641 35.1328 8.00391 36.5469 8.40234C37.9688 8.80078 39.0781 9.24219 39.875 9.72656C40.6797 10.2031 41.2734 10.7617 41.6562 11.4023C42.0469 12.043 42.2422 12.7969 42.2422 13.6641C42.2422 15.0469 41.7031 16.1562 40.625 16.9922C39.5469 17.8203 38.1055 18.2344 36.3008 18.2344C35.1289 18.2344 34.0352 18.0117 33.0195 17.5664C32.0039 17.1133 31.2188 16.4961 30.6641 15.7148C30.1172 14.9336 29.8438 14.0469 29.8438 13.0547H32.1055C32.1055 14.0859 32.4844 14.9023 33.2422 15.5039C34.0078 16.0977 35.0273 16.3945 36.3008 16.3945C37.4883 16.3945 38.3984 16.1523 39.0312 15.668C39.6641 15.1836 39.9805 14.5234 39.9805 13.6875C39.9805 12.8516 39.6875 12.207 39.1016 11.7539C38.5156 11.293 37.4531 10.8398 35.9141 10.3945Z" fill="url(#paint0_linear)"/>
<defs>
<linearGradient id="paint0_linear" x1="-1" y1="9.98205" x2="44" y2="9.98205" gradientUnits="userSpaceOnUse">
<stop stop-color="#FD7902"/>
<stop offset="0.552083" stop-color="#6B6C99"/>
<stop offset="1" stop-color="#0D9499"/>
</linearGradient>
</defs>
</svg>
