<svg width="190" height="190" viewBox="0 0 190 190" fill="none" xmlns="http://www.w3.org/2000/svg">
<path d="M135.268 11.4201C135.279 11.4252 135.29 11.4303 135.3 11.4353C135.305 11.4372 135.309 11.4392 135.313 11.4412C136.421 11.9474 137.536 12.5134 138.665 13.113L133.534 17.723L122.678 6.37265C127.01 7.75403 131.215 9.445 135.268 11.4201ZM119.09 5.41127L98.1368 24.0632L86.2702 11.1697C85.5273 10.3626 84.273 10.3044 83.4587 11.0393L42.2315 48.2418C41.8376 48.5973 41.601 49.0948 41.574 49.6247C41.5469 50.1547 41.7316 50.6736 42.0873 51.0674L67.1261 78.7837L58.3391 86.5127C57.9391 86.8646 57.696 87.3615 57.6637 87.8932C57.6314 88.425 57.8126 88.9476 58.1671 89.3453L82.8764 117.063L74.0794 124.8C73.6787 125.153 73.4355 125.651 73.4038 126.184C73.3722 126.716 73.5547 127.24 73.9109 127.637L111.156 169.196C111.513 169.595 112.015 169.834 112.55 169.859C113.084 169.885 113.607 169.695 114.001 169.332L134.546 150.39L150.936 169.017C147.662 171.443 144.156 173.819 140.413 175.926L140.406 175.93C126.453 183.859 110.73 188.014 94.7449 188H94.7434C43.5979 187.992 2.00058 146.249 2.0006 94.9196L2.00057 94.9126C1.82233 43.9268 43.4149 2 94.561 2C103.056 2 111.312 3.15982 119.183 5.33329C119.152 5.35819 119.121 5.38418 119.09 5.41127Z" fill="#0D9499" stroke="white" stroke-width="4" stroke-linecap="round" stroke-linejoin="round"/>
<rect width="30.0217" height="30.0211" transform="matrix(0.745492 -0.666514 0.666639 0.745381 61.2454 50.4443)" fill="#FD7903"/>
<rect width="22.7015" height="22.7011" transform="matrix(0.748862 -0.662726 0.662852 0.748751 102.354 39.5371)" fill="#FD7903"/>
<rect width="15.098" height="15.8843" transform="matrix(0.736561 -0.676371 0.676495 0.736447 139.944 32.0913)" fill="#FD7903"/>
<rect width="15.098" height="15.8843" transform="matrix(0.736561 -0.676371 0.676495 0.736447 154.03 65.5049)" fill="#FD7903"/>
<rect width="15.098" height="15.8843" transform="matrix(0.736561 -0.676371 0.676495 0.736447 168.134 98.9033)" fill="#FD7903"/>
<rect width="22.1134" height="23.2652" transform="matrix(0.736561 -0.676371 0.676495 0.736447 118.428 73.5898)" fill="#FD7903"/>
<rect width="31.0919" height="30.4984" transform="matrix(0.736561 -0.676371 0.676495 0.736447 77.037 89.8018)" fill="#FD7903"/>
<rect width="31.0919" height="30.4984" transform="matrix(0.736561 -0.676371 0.676495 0.736447 92.7891 128.647)" fill="#FD7903"/>
<rect width="23.1876" height="22.745" transform="matrix(0.736561 -0.676371 0.676495 0.736447 132.015 109.57)" fill="#FD7903"/>
<rect width="23.1876" height="22.745" transform="matrix(0.736561 -0.676371 0.676495 0.736447 147.349 143.711)" fill="#FD7903"/>
</svg>
